<?xml version="1.0" encoding="UTF-8" standalone="no"?>
<svg
   xmlns:dc="http://purl.org/dc/elements/1.1/"
   xmlns:cc="http://creativecommons.org/ns#"
   xmlns:rdf="http://www.w3.org/1999/02/22-rdf-syntax-ns#"
   xmlns:svg="http://www.w3.org/2000/svg"
   xmlns="http://www.w3.org/2000/svg"
   xmlns:xlink="http://www.w3.org/1999/xlink"
   xmlns:sodipodi="http://sodipodi.sourceforge.net/DTD/sodipodi-0.dtd"
   xmlns:inkscape="http://www.inkscape.org/namespaces/inkscape"
   width="16"
   height="16"
   viewBox="0 0 4.2333334 4.2333334"
   version="1.1"
   id="svg8"
   inkscape:version="1.0 (4035a4fb49, 2020-05-01)"
   sodipodi:docname="favicon.svg">
  <defs
     id="defs2">
    <linearGradient
       gradientTransform="translate(279.13629,-73.338758)"
       gradientUnits="userSpaceOnUse"
       y2="-142.93575"
       x2="-1525.8951"
       y1="164.63803"
       x1="-1829.7272"
       id="linearGradient4288"
       xlink:href="#linearGradient4286"
       inkscape:collect="always" />
    <linearGradient
       id="linearGradient4286"
       inkscape:collect="always">
      <stop
         id="stop4282"
         offset="0"
         style="stop-color:#000000;stop-opacity:1;" />
      <stop
         id="stop4284"
         offset="1"
         style="stop-color:#333333;stop-opacity:1" />
    </linearGradient>
    <linearGradient
       gradientTransform="translate(279.13629,-73.338758)"
       gradientUnits="userSpaceOnUse"
       y2="287.30966"
       x2="-1801.3296"
       y1="-217.15346"
       x1="-1447.9666"
       id="linearGradient4290"
       xlink:href="#linearGradient4296"
       inkscape:collect="always" />
    <linearGradient
       inkscape:collect="always"
       id="linearGradient4296">
      <stop
         style="stop-color:#00112b;stop-opacity:1"
         offset="0"
         id="stop4292" />
      <stop
         style="stop-color:#0055d4;stop-opacity:1"
         offset="1"
         id="stop4294" />
    </linearGradient>
    <inkscape:path-effect
       lpeversion="1"
       is_visible="true"
       id="path-effect2330"
       effect="spiro" />
  </defs>
  <sodipodi:namedview
     id="base"
     pagecolor="#ffffff"
     bordercolor="#666666"
     borderopacity="1.0"
     inkscape:pageopacity="0.0"
     inkscape:pageshadow="2"
     inkscape:zoom="22.627417"
     inkscape:cx="0.3639535"
     inkscape:cy="10.855023"
     inkscape:document-units="mm"
     inkscape:current-layer="layer1"
     inkscape:document-rotation="0"
     showgrid="false"
     units="px"
     inkscape:window-width="1920"
     inkscape:window-height="1013"
     inkscape:window-x="-9"
     inkscape:window-y="-9"
     inkscape:window-maximized="1" />
  <metadata
     id="metadata5">
    <rdf:RDF>
      <cc:Work
         rdf:about="">
        <dc:format>image/svg+xml</dc:format>
        <dc:type
           rdf:resource="http://purl.org/dc/dcmitype/StillImage" />
        <dc:title></dc:title>
      </cc:Work>
    </rdf:RDF>
  </metadata>
  <g
     inkscape:label="Warstwa 1"
     inkscape:groupmode="layer"
     id="layer1">
    <g
       transform="matrix(0.00903582,0,0,0.00903582,14.679064,2.0108072)"
       id="g4306">
      <path
         id="path4248"
         style="fill:#333333;fill-opacity:1;stroke:none;stroke-width:0.744471;stroke-linecap:round;stroke-linejoin:round;stroke-miterlimit:4;stroke-dasharray:none;stroke-opacity:1"
         d="m -1479.422,195.73124 134.6068,-77.7153 c 1.1906,-0.68739 3.3981,-0.45078 5.0146,0.4136 l 81.5007,43.58176 c 1.6164,0.86438 0.969,5.13894 -0.2216,5.82633 l -134.6068,77.7153 c -1.1906,0.6874 -3.4271,0.50292 -5.0146,-0.4136 l -80.5627,-46.51291 c -1.5875,-0.91655 -1.907,-2.20778 -0.7164,-2.89518 z"
         sodipodi:nodetypes="sssssssss" />
      <rect
         style="fill:#4d4d4d;fill-opacity:1;stroke:none;stroke-width:0.799987;stroke-linecap:round;stroke-linejoin:round;stroke-miterlimit:4;stroke-dasharray:none;stroke-opacity:1"
         id="rect4250"
         width="160.39371"
         height="99.643379"
         x="-1048.4181"
         y="-662.35291"
         rx="2.4815729"
         ry="3.3087676"
         transform="matrix(0.8660254,-0.5,0.8660254,0.5,0,0)" />
      <path
         id="path4252"
         style="fill:#1a1a1a;fill-opacity:1;stroke:none;stroke-width:0.744471;stroke-linecap:round;stroke-linejoin:round;stroke-miterlimit:4;stroke-dasharray:none;stroke-opacity:1"
         d="m -1410.0335,54.901222 76.1205,-43.94821 c 1.1906,-0.6874 2.1491,0.0372 2.1491,1.62468 V 145.48101 c 0,1.58748 -0.9983,3.35419 -2.1491,4.10628 l -71.5607,46.767 c -1.1508,0.75201 -6.7089,-2.85602 -6.7089,-4.4435 V 59.007472 c 0,-1.58746 0.9585,-3.41886 2.1491,-4.10625 z"
         sodipodi:nodetypes="sssssssss" />
      <rect
         transform="matrix(0.8660254,-0.5,0,1,0,0)"
         ry="2.8654735"
         rx="2.4815729"
         y="-753.52313"
         x="-1624.5829"
         height="138.63426"
         width="92.85952"
         id="rect4254"
         style="fill:#333333;fill-opacity:1;stroke:none;stroke-width:0.799987;stroke-linecap:round;stroke-linejoin:round;stroke-miterlimit:4;stroke-dasharray:none;stroke-opacity:1" />
      <path
         id="path4256"
         style="fill:url(#linearGradient4288);fill-opacity:1;stroke:none;stroke-width:0.744471;stroke-linecap:round;stroke-linejoin:round;stroke-miterlimit:4;stroke-dasharray:none;stroke-opacity:1"
         d="m -1534.7815,-59.355605 279.3834,-161.302155 c 11.9061,-6.87395 33.9267,6.15869 33.9267,22.0334 l -12.4356,223.451184 c -0.8821,15.850188 -4.9008,38.582638 -16.8069,45.456588 L -1525.2331,237.853 c -11.906,6.87398 -31.0395,-11.0336 -31.0395,-26.90833 V -18.292995 c 0,-15.87473 9.585,-34.18866 21.4911,-41.06261 z"
         sodipodi:nodetypes="sscsccsss" />
      <rect
         style="fill:#1a1a1a;fill-opacity:1;stroke:none;stroke-width:0.79948;stroke-linecap:round;stroke-linejoin:round;stroke-miterlimit:4;stroke-dasharray:none;stroke-opacity:1"
         id="rect4258"
         width="372.23572"
         height="286.54718"
         x="-1782.1145"
         y="-928.24451"
         rx="24.815731"
         ry="28.654739"
         transform="matrix(0.8660254,-0.5,0,1,0,0)" />
      <path
         id="path4260"
         style="fill:#00112b;stroke:none;stroke-width:0.744471;stroke-linecap:round;stroke-linejoin:round;stroke-miterlimit:4;stroke-dasharray:none;stroke-opacity:1"
         d="m -1533.4786,228.97598 c 0.6295,0.92439 1.3919,1.74189 2.5109,2.21853 4.4587,0.63732 7.9169,-2.89927 11.662,-4.68585 91.6505,-52.99049 183.3784,-105.83178 274.9644,-158.918598 7.9495,-6.00329 12.7254,-15.44215 14.7731,-25.0335 1.5567,-9.13344 0.5276,-18.42638 0.8079,-27.63415 -0.075,-70.36365 0.074,-140.731142 -0.1655,-211.092552 -0.2089,-3.16837 -1.0069,-7.25539 -4.1036,-8.75101 0.3258,0.4638 0.6888,0.89686 0.9169,1.43628 0.3607,0.85302 0.6112,1.7783 0.7848,2.70454 0.1735,0.92627 0.2704,1.85344 0.327,2.71097 0.24,70.36141 0.091,140.728902 0.1655,211.092542 -0.1402,4.60389 0.047,9.22889 0.074,13.84467 0.015,2.30788 -0.012,4.61391 -0.1385,6.91333 -0.1268,2.29945 -0.3546,4.59282 -0.7438,6.87619 -0.5119,2.39782 -1.1944,4.78588 -2.0543,7.1134 -0.8599,2.32751 -1.897,4.59334 -3.1188,6.74791 -0.6109,1.07728 -1.2683,2.12706 -1.9723,3.14185 -0.704,1.01481 -1.4556,1.99461 -2.2544,2.93411 -0.7989,0.93949 -1.6451,1.83909 -2.5405,2.69044 -0.8953,0.85138 -1.8391,1.65536 -2.8327,2.40576 -91.586,53.086818 -183.3153,105.928108 -274.9657,158.918598 -1.8726,0.89329 -3.6731,2.22299 -5.563,3.25085 -0.945,0.51394 -1.9116,0.95223 -2.9213,1.22213 -0.5048,0.135 -1.0206,0.2288 -1.5491,0.26801 -0.5286,0.0392 -1.07,0.0248 -1.6274,-0.0551 -0.1774,-0.0754 -0.2725,-0.23004 -0.436,-0.31931 z" />
      <path
         id="path4262"
         style="fill:url(#linearGradient4290);fill-opacity:1;stroke:none;stroke-width:0.744471;stroke-linecap:round;stroke-linejoin:round;stroke-miterlimit:4;stroke-dasharray:none;stroke-opacity:1"
         d="m -1533.4786,228.97598 c 0.1635,0.0893 0.2586,0.24369 0.436,0.31931 0.5573,0.0797 1.0987,0.0943 1.6273,0.0551 0.5286,-0.0392 1.0443,-0.13301 1.5491,-0.26801 1.0097,-0.2699 1.9764,-0.70819 2.9213,-1.22212 1.8899,-1.02787 3.6905,-2.35757 5.563,-3.25086 91.6505,-52.99049 183.3797,-105.83178 274.9657,-158.918598 0.9937,-0.7504 1.9374,-1.55438 2.8328,-2.40576 0.8954,-0.85135 1.7416,-1.75095 2.5404,-2.69044 0.7988,-0.9395 1.5505,-1.9193 2.2545,-2.93411 0.7039,-1.01479 1.3614,-2.06457 1.9723,-3.14185 1.2218,-2.15457 2.2588,-4.4204 3.1187,-6.74791 0.86,-2.32752 1.5425,-4.71558 2.0544,-7.1134 0.3892,-2.28337 0.617,-4.57674 0.7438,-6.87619 0.1268,-2.29942 0.1524,-4.60545 0.1385,-6.91333 -0.028,-4.61578 -0.2147,-9.24078 -0.075,-13.84467 -0.075,-70.36364 0.075,-140.731132 -0.1655,-211.092542 -0.057,-0.85753 -0.1534,-1.7847 -0.327,-2.71097 -0.1735,-0.92624 -0.4242,-1.85152 -0.7849,-2.70454 -0.228,-0.53942 -0.591,-0.97248 -0.9169,-1.43628 -0.2558,-0.12358 -0.4975,-0.26312 -0.7861,-0.34881 -0.3033,-0.0697 -0.616,-0.0692 -0.9246,-0.0499 -6.1495,1.31258 -10.8585,5.84164 -16.4492,8.43811 -89.5453,51.71876 -179.1069,103.406412 -268.6114,155.195822 -8.6673,6.49755 -13.7654,17.08185 -15.3258,27.48157 -0.9267,8.40776 -0.1589,17.16981 -0.4219,25.71699 0,70.24304 -0.095,140.488308 0.095,210.729638 0.1811,2.2482 0.6681,4.81509 1.9749,6.73382 z" />
      <text
         id="text4310"
         y="-289.18958"
         x="-2495.2854"
         style="font-size:50.8px;line-height:1.25;font-family:'Bungee Shade';-inkscape-font-specification:'Bungee Shade';stroke-width:0.264583"
         xml:space="preserve"><tspan
           style="stroke-width:0.264583"
           y="-289.18958"
           x="-2495.2854"
           id="tspan4308"
           sodipodi:role="line" /></text>
    </g>
  </g>
</svg>
